<?xml version="1.0" encoding="UTF-8" standalone="no"?>
<!DOCTYPE svg PUBLIC "-//W3C//DTD SVG 1.1//EN" "http://www.w3.org/Graphics/SVG/1.1/DTD/svg11.dtd">
<svg width="100%" height="100%" viewBox="0 0 168 168" version="1.1" xmlns="http://www.w3.org/2000/svg" xmlns:xlink="http://www.w3.org/1999/xlink" xml:space="preserve" xmlns:serif="http://www.serif.com/" style="fill-rule:evenodd;clip-rule:evenodd;stroke-linejoin:round;stroke-miterlimit:2;">
    <g transform="matrix(1,0,0,1,-21196.6,-3322.82)">
        <g transform="matrix(5.55556,0,0,5.55556,18602.4,2622.05)">
            <g transform="matrix(1,0,0,1,472.571,148.904)">
                <path d="M0,-15.357C0.133,-15.678 -0.018,-16.046 -0.338,-16.179C-0.812,-16.378 -1.318,-16.479 -1.838,-16.479C-3.653,-16.479 -5.234,-15.21 -5.596,-13.463C-5.667,-13.123 -5.355,-12.695 -4.98,-12.707C-4.689,-12.715 -4.427,-12.911 -4.365,-13.207C-4.124,-14.374 -3.06,-15.221 -1.838,-15.221C-1.485,-15.221 -1.144,-15.153 -0.824,-15.019C-0.504,-14.886 -0.135,-15.036 -0.001,-15.357L0,-15.357ZM-3.094,-20.251C-3.094,-19.558 -2.53,-18.993 -1.837,-18.993C-1.144,-18.993 -0.58,-19.558 -0.58,-20.251C-0.58,-20.943 -1.144,-21.508 -1.837,-21.508C-2.53,-21.508 -3.094,-20.943 -3.094,-20.251M-4.352,-20.251C-4.352,-21.637 -3.224,-22.765 -1.837,-22.765C-0.45,-22.765 0.678,-21.637 0.678,-20.251C0.678,-18.864 -0.45,-17.736 -1.837,-17.736C-3.224,-17.736 -4.352,-18.864 -4.352,-20.251M19.213,1.038L12.622,-1.212L12.622,-6.915C12.622,-8.516 11.496,-9.906 10.002,-10.15C9.081,-10.295 8.148,-10.043 7.443,-9.444C6.739,-8.845 6.336,-7.973 6.336,-7.048L6.336,2.286L6.162,2.37L4.04,0.68C4.04,0.68 4.03,0.677 4.026,0.673C2.759,-0.464 0.805,-0.388 -0.361,0.861C-1.544,2.128 -1.485,4.115 -0.228,5.292L1.834,7.239C1.95,7.348 2.104,7.408 2.263,7.408C2.827,7.408 3.102,6.721 2.693,6.332L0.64,4.382C-0.113,3.675 -0.151,2.478 0.56,1.719C1.265,0.962 2.457,0.921 3.219,1.627C3.224,1.632 3.231,1.633 3.238,1.637C3.246,1.645 3.249,1.655 3.258,1.661L5.38,3.351C5.793,3.68 6.347,3.742 6.822,3.512C7.299,3.282 7.594,2.812 7.594,2.282L7.594,-7.052C7.594,-7.605 7.837,-8.13 8.259,-8.489C8.688,-8.854 9.238,-9.002 9.802,-8.912C10.694,-8.767 11.368,-7.91 11.368,-6.918L11.368,-0.766C11.368,-0.496 11.539,-0.258 11.793,-0.171L18.791,2.218C20.804,2.973 22.055,4.72 22.055,6.779C22.055,7.126 22.337,7.407 22.684,7.407C23.031,7.407 23.312,7.126 23.312,6.779C23.312,4.183 21.75,1.984 19.216,1.035L19.213,1.038ZM24.555,-13.463C24.193,-15.211 22.612,-16.479 20.795,-16.479C20.275,-16.479 19.77,-16.378 19.295,-16.179C18.975,-16.046 18.824,-15.678 18.957,-15.357C19.092,-15.036 19.461,-14.886 19.779,-15.019C20.1,-15.152 20.441,-15.221 20.794,-15.221C22.017,-15.221 23.08,-14.375 23.321,-13.207C23.383,-12.91 23.646,-12.69 23.936,-12.707C24.396,-12.73 24.623,-13.123 24.552,-13.463L24.555,-13.463ZM8.222,-17.736C8.222,-17.043 8.786,-16.479 9.479,-16.479C10.172,-16.479 10.736,-17.043 10.736,-17.736C10.736,-18.429 10.172,-18.993 9.479,-18.993C8.786,-18.993 8.222,-18.429 8.222,-17.736M6.964,-17.736C6.964,-19.123 8.092,-20.251 9.479,-20.251C10.866,-20.251 11.994,-19.123 11.994,-17.736C11.994,-16.349 10.866,-15.221 9.479,-15.221C8.092,-15.221 6.964,-16.349 6.964,-17.736M6.348,-10.873C6.666,-10.735 7.037,-10.88 7.177,-11.196C7.578,-12.113 8.482,-12.707 9.479,-12.707C10.476,-12.707 11.38,-12.114 11.781,-11.196C11.884,-10.96 12.117,-10.797 12.357,-10.821C13.025,-10.885 13.071,-11.384 12.933,-11.702C12.331,-13.076 10.975,-13.964 9.479,-13.964C7.983,-13.964 6.626,-13.075 6.025,-11.702C5.886,-11.384 6.03,-11.013 6.348,-10.873M19.538,-20.251C19.538,-19.558 20.102,-18.993 20.795,-18.993C21.488,-18.993 22.053,-19.558 22.053,-20.251C22.053,-20.943 21.488,-21.508 20.795,-21.508C20.102,-21.508 19.538,-20.943 19.538,-20.251M18.281,-20.251C18.281,-21.637 19.408,-22.765 20.795,-22.765C22.182,-22.765 23.31,-21.637 23.31,-20.251C23.31,-18.864 22.182,-17.736 20.795,-17.736C19.408,-17.736 18.281,-18.864 18.281,-20.251M4.311,-9.734C2.779,-11.178 1.935,-13.126 1.935,-15.221C1.935,-19.382 5.319,-22.765 9.479,-22.765C13.64,-22.765 17.023,-19.382 17.023,-15.221C17.023,-13.126 16.18,-11.179 14.647,-9.734C14.525,-9.62 14.37,-9.563 14.216,-9.563C14.048,-9.563 13.881,-9.63 13.758,-9.761C13.52,-10.013 13.532,-10.411 13.784,-10.65C15.062,-11.854 15.766,-13.477 15.766,-15.221C15.766,-18.688 12.946,-21.508 9.479,-21.508C6.013,-21.508 3.192,-18.688 3.192,-15.221C3.192,-13.477 3.897,-11.853 5.174,-10.65C5.427,-10.412 5.438,-10.013 5.2,-9.761C4.963,-9.508 4.565,-9.495 4.311,-9.734" style="fill-rule:nonzero;"/>
            </g>
        </g>
    </g>
</svg>
