<?xml version="1.0" encoding="UTF-8" standalone="no"?>
<!DOCTYPE svg PUBLIC "-//W3C//DTD SVG 1.1//EN" "http://www.w3.org/Graphics/SVG/1.1/DTD/svg11.dtd">
<svg width="100%" height="100%" viewBox="0 0 165 168" version="1.1" xmlns="http://www.w3.org/2000/svg" xmlns:xlink="http://www.w3.org/1999/xlink" xml:space="preserve" xmlns:serif="http://www.serif.com/" style="fill-rule:evenodd;clip-rule:evenodd;stroke-linejoin:round;stroke-miterlimit:2;">
    <g transform="matrix(1,0,0,1,-13962.6,-3581.75)">
        <g id="Page-10" serif:id="Page 10" transform="matrix(5.55556,0,0,5.55556,11161.4,2622.05)">
            <rect x="0" y="0" width="595.276" height="419.528" style="fill:none;"/>
            <g transform="matrix(1,0,0,1,519.328,187.66)">
                <path d="M0,0.196C-1.041,0.196 -1.889,1.043 -1.889,2.085C-1.889,3.126 -1.041,3.973 0,3.973C1.041,3.973 1.889,3.126 1.889,2.085C1.889,1.043 1.041,0.196 0,0.196M0,-1.063C1.735,-1.063 3.148,0.348 3.148,2.085C3.148,3.821 1.735,5.232 0,5.232C-1.735,5.232 -3.148,3.821 -3.148,2.085C-3.148,0.348 -1.735,-1.063 0,-1.063M13.139,-6.744C13.091,-6.906 12.984,-7.039 12.835,-7.121C12.588,-7.254 12.447,-7.541 12.506,-7.816C12.567,-8.095 12.597,-8.357 12.597,-8.619C12.597,-8.881 12.568,-9.143 12.506,-9.422C12.446,-9.704 12.583,-9.99 12.84,-10.12C13.128,-10.28 13.239,-10.664 13.072,-10.966C12.99,-11.114 12.856,-11.221 12.695,-11.267C12.533,-11.316 12.362,-11.293 12.217,-11.214C11.971,-11.079 11.664,-11.118 11.465,-11.311C11.046,-11.722 10.503,-12.036 9.898,-12.22C9.632,-12.299 9.449,-12.545 9.449,-12.823L9.449,-13.027C9.449,-13.373 9.167,-13.656 8.82,-13.656C8.472,-13.656 8.19,-13.373 8.19,-13.027L8.19,-12.823C8.19,-12.545 8.008,-12.3 7.742,-12.22C7.136,-12.036 6.595,-11.722 6.175,-11.311C5.976,-11.117 5.672,-11.074 5.428,-11.21C5.287,-11.288 5.122,-11.306 4.966,-11.263C4.808,-11.218 4.679,-11.114 4.599,-10.971C4.418,-10.642 4.524,-10.271 4.818,-10.108C5.104,-9.994 5.197,-9.723 5.132,-9.422C5.072,-9.143 5.041,-8.881 5.041,-8.619C5.041,-8.357 5.07,-8.095 5.132,-7.816C5.191,-7.54 5.062,-7.258 4.812,-7.126C4.628,-7.026 4.52,-6.891 4.471,-6.73C4.423,-6.568 4.443,-6.397 4.524,-6.249C4.69,-5.947 5.074,-5.838 5.374,-5.999C5.48,-6.057 5.608,-6.087 5.735,-6.087C5.9,-6.087 6.062,-6.035 6.175,-5.927C6.594,-5.515 7.136,-5.202 7.742,-5.018C8.008,-4.939 8.19,-4.693 8.19,-4.415L8.19,-4.211C8.19,-3.865 8.472,-3.581 8.82,-3.581C9.167,-3.581 9.449,-3.865 9.449,-4.211L9.449,-4.415C9.449,-4.693 9.632,-4.937 9.898,-5.018C10.503,-5.202 11.045,-5.515 11.465,-5.927C11.663,-6.121 11.968,-6.164 12.211,-6.028C12.539,-5.849 12.919,-5.961 13.086,-6.264C13.167,-6.413 13.186,-6.583 13.139,-6.745L13.139,-6.744ZM14.187,-5.655C13.759,-4.878 12.855,-4.524 12.033,-4.746C11.638,-4.424 11.184,-4.158 10.692,-3.963C10.57,-3.039 9.777,-2.322 8.82,-2.322C7.863,-2.322 7.07,-3.037 6.948,-3.963C6.455,-4.158 6.001,-4.424 5.605,-4.748C4.751,-4.505 3.85,-4.866 3.423,-5.64C3.179,-6.084 3.123,-6.597 3.265,-7.083C3.367,-7.43 3.562,-7.736 3.829,-7.969C3.8,-8.188 3.785,-8.406 3.785,-8.618C3.785,-8.842 3.801,-9.07 3.834,-9.301C3.221,-9.894 3.07,-10.798 3.48,-11.542C3.742,-12.016 4.139,-12.333 4.62,-12.47C4.946,-12.564 5.283,-12.57 5.603,-12.484C5.998,-12.81 6.454,-13.077 6.948,-13.272C7.07,-14.197 7.863,-14.913 8.82,-14.913C9.777,-14.913 10.57,-14.198 10.692,-13.272C11.186,-13.077 11.64,-12.81 12.036,-12.485C12.364,-12.575 12.71,-12.571 13.043,-12.474C13.528,-12.336 13.929,-12.015 14.173,-11.571C14.599,-10.801 14.427,-9.857 13.808,-9.28C13.839,-9.056 13.855,-8.834 13.855,-8.618C13.855,-8.402 13.84,-8.182 13.81,-7.96C14.063,-7.73 14.248,-7.434 14.346,-7.097C14.488,-6.609 14.432,-6.098 14.186,-5.654L14.187,-5.655ZM-4.407,-7.36L-0.572,-7.36L-2.333,-5.598C-2.579,-5.353 -2.579,-4.954 -2.333,-4.708C-2.21,-4.585 -2.049,-4.524 -1.887,-4.524C-1.726,-4.524 -1.565,-4.586 -1.442,-4.708L0.851,-7.001C1.396,-7.546 1.396,-8.434 0.851,-8.978L-1.442,-11.27C-1.687,-11.516 -2.086,-11.516 -2.332,-11.27C-2.577,-11.025 -2.577,-10.626 -2.332,-10.38L-0.57,-8.619L-4.406,-8.619C-4.753,-8.619 -5.035,-8.337 -5.035,-7.989C-5.035,-7.642 -4.753,-7.36 -4.406,-7.36L-4.407,-7.36ZM10.078,-8.619C10.078,-9.314 9.512,-9.878 8.819,-9.878C8.125,-9.878 7.56,-9.314 7.56,-8.619C7.56,-7.924 8.125,-7.36 8.819,-7.36C9.512,-7.36 10.078,-7.924 10.078,-8.619M11.337,-8.619C11.337,-7.23 10.207,-6.101 8.819,-6.101C7.43,-6.101 6.3,-7.23 6.3,-8.619C6.3,-10.008 7.43,-11.137 8.819,-11.137C10.207,-11.137 11.337,-10.008 11.337,-8.619M-12.704,-8.098C-12.02,-7.536 -11.681,-6.835 -11.508,-6.101L-9.898,-6.101C-9.724,-6.835 -9.384,-7.535 -8.698,-8.1C-7.973,-8.701 -7.556,-9.577 -7.556,-10.506C-7.556,-11.471 -7.989,-12.368 -8.744,-12.971C-9.308,-13.421 -9.985,-13.654 -10.702,-13.654C-10.958,-13.654 -11.217,-13.625 -11.48,-13.566C-12.595,-13.309 -13.514,-12.383 -13.766,-11.262C-14.039,-10.05 -13.642,-8.868 -12.704,-8.098M-13.504,-7.124C-14.817,-8.205 -15.373,-9.854 -14.994,-11.539C-14.638,-13.121 -13.339,-14.43 -11.761,-14.793C-10.38,-15.106 -9.03,-14.81 -7.96,-13.956C-6.904,-13.114 -6.297,-11.856 -6.297,-10.507C-6.297,-9.201 -6.88,-7.969 -7.897,-7.129C-8.665,-6.497 -8.815,-5.582 -8.815,-4.213L-8.815,-3.584C-8.815,-2.767 -9.463,-2.325 -10.074,-2.325L-11.333,-2.325C-11.944,-2.325 -12.592,-2.767 -12.592,-3.584L-12.592,-4.213C-12.592,-5.583 -12.742,-6.499 -13.504,-7.124M13.58,0.308C13.866,0.507 13.934,0.9 13.735,1.184L10.457,5.869C9.633,7.047 8.283,7.748 6.847,7.748L5.036,7.748L5.036,14.673C5.036,15.02 4.754,15.302 4.407,15.302C4.059,15.302 3.777,15.02 3.777,14.673L3.777,7.748L-3.777,7.748L-3.777,14.673C-3.777,15.02 -4.059,15.302 -4.407,15.302C-4.754,15.302 -5.036,15.02 -5.036,14.673L-5.036,7.748L-6.847,7.748C-8.284,7.748 -9.633,7.045 -10.457,5.869L-13.735,1.184C-13.934,0.899 -13.866,0.507 -13.58,0.308C-13.297,0.108 -12.903,0.177 -12.704,0.462L-9.425,5.147C-8.837,5.988 -7.874,6.489 -6.847,6.489L6.847,6.489C7.873,6.489 8.837,5.988 9.425,5.147L12.704,0.462C12.904,0.177 13.296,0.108 13.58,0.308" style="fill-rule:nonzero;"/>
            </g>
        </g>
    </g>
</svg>
