<?xml version="1.0" encoding="UTF-8" standalone="no"?>
<!DOCTYPE svg PUBLIC "-//W3C//DTD SVG 1.1//EN" "http://www.w3.org/Graphics/SVG/1.1/DTD/svg11.dtd">
<svg width="100%" height="100%" viewBox="0 0 155 175" version="1.1" xmlns="http://www.w3.org/2000/svg" xmlns:xlink="http://www.w3.org/1999/xlink" xml:space="preserve" xmlns:serif="http://www.serif.com/" style="fill-rule:evenodd;clip-rule:evenodd;stroke-linejoin:round;stroke-miterlimit:2;">
    <g transform="matrix(1,0,0,1,-2560.44,-6193.75)">
        <g transform="matrix(5.55556,0,0,5.55556,0,5244.1)">
            <g transform="matrix(1,0,0,1,486.191,182.674)">
                <path d="M0,7.851L-0.978,7.251C-1.226,7.108 -1.343,6.808 -1.265,6.534C-1.043,5.686 -0.939,4.812 -0.939,3.939C-0.939,3.065 -1.043,2.191 -1.265,1.343C-1.33,1.069 -1.213,0.77 -0.978,0.626L0,0.026C1.226,-0.73 1.617,-2.334 0.861,-3.56C0.104,-4.786 -1.5,-5.177 -2.726,-4.421L-3.704,-3.821C-3.952,-3.678 -4.265,-3.704 -4.473,-3.886C-5.595,-4.877 -6.886,-5.595 -8.307,-6.038C-8.581,-6.116 -8.764,-6.377 -8.764,-6.664L-8.764,-7.799C-8.764,-9.233 -9.938,-10.407 -11.372,-10.407C-12.807,-10.407 -13.98,-9.233 -13.98,-7.799L-13.98,-6.664C-13.98,-6.377 -14.163,-6.129 -14.437,-6.038C-15.858,-5.608 -17.149,-4.877 -18.271,-3.886C-18.48,-3.691 -18.793,-3.665 -19.04,-3.821L-20.019,-4.421C-21.244,-5.177 -22.849,-4.786 -23.605,-3.56C-24.361,-2.334 -23.97,-0.73 -22.744,0.026L-21.766,0.626C-21.518,0.77 -21.401,1.069 -21.479,1.343C-21.701,2.191 -21.805,3.065 -21.805,3.939C-21.805,4.812 -21.701,5.686 -21.479,6.534C-21.414,6.808 -21.531,7.108 -21.766,7.251L-22.744,7.851C-23.97,8.607 -24.361,10.211 -23.605,11.437C-22.849,12.663 -21.244,13.055 -20.019,12.298L-19.04,11.698C-18.936,11.633 -18.819,11.607 -18.701,11.607C-18.545,11.607 -18.388,11.659 -18.271,11.763C-17.149,12.755 -15.858,13.472 -14.437,13.915C-14.163,13.994 -13.98,14.254 -13.98,14.541L-13.98,15.676C-13.98,17.11 -12.807,18.284 -11.372,18.284C-9.938,18.284 -8.764,17.11 -8.764,15.676L-8.764,14.541C-8.764,14.254 -8.581,14.007 -8.307,13.915C-6.886,13.485 -5.595,12.755 -4.473,11.763C-4.251,11.568 -3.939,11.542 -3.704,11.698L-2.726,12.298C-1.5,13.055 0.104,12.663 0.861,11.437C1.617,10.212 1.226,8.607 0,7.851M1.969,12.116C1.422,13.002 0.561,13.628 -0.456,13.876C-1.474,14.124 -2.517,13.954 -3.417,13.407L-3.991,13.055C-5.034,13.902 -6.208,14.554 -7.473,15.011L-7.473,15.676C-7.473,17.828 -9.233,19.588 -11.385,19.588C-13.537,19.588 -15.298,17.828 -15.298,15.676L-15.298,15.011C-16.563,14.567 -17.736,13.915 -18.78,13.055L-19.353,13.407C-20.24,13.954 -21.297,14.124 -22.314,13.876C-23.331,13.628 -24.192,13.002 -24.74,12.116C-25.861,10.277 -25.287,7.864 -23.448,6.729L-22.875,6.377C-23.044,5.582 -23.135,4.76 -23.135,3.926C-23.135,3.091 -23.044,2.282 -22.875,1.474L-23.448,1.122C-25.287,-0 -25.861,-2.413 -24.74,-4.264C-24.192,-5.151 -23.331,-5.777 -22.314,-6.025C-21.297,-6.273 -20.253,-6.103 -19.353,-5.556L-18.78,-5.203C-17.736,-6.051 -16.563,-6.703 -15.298,-7.16L-15.298,-7.825C-15.298,-9.977 -13.537,-11.737 -11.385,-11.737C-9.233,-11.737 -7.473,-9.977 -7.473,-7.825L-7.473,-7.16C-6.208,-6.716 -5.034,-6.064 -3.991,-5.203L-3.417,-5.556C-2.53,-6.103 -1.474,-6.26 -0.456,-6.025C0.561,-5.777 1.422,-5.151 1.969,-4.264C3.091,-2.426 2.517,-0.013 0.678,1.122L0.104,1.474C0.274,2.269 0.365,3.091 0.365,3.926C0.365,4.76 0.274,5.569 0.104,6.377L0.678,6.729C2.517,7.851 3.091,10.264 1.969,12.116M-6.442,0.3C-6.703,0.039 -7.108,0.039 -7.368,0.3C-7.629,0.561 -7.629,0.965 -7.368,1.226L-5.047,3.547C-4.799,3.795 -4.799,4.199 -5.047,4.447L-7.303,6.703C-7.564,6.964 -7.564,7.368 -7.303,7.629C-7.173,7.76 -7.003,7.825 -6.847,7.825C-6.69,7.825 -6.508,7.76 -6.39,7.629L-4.134,5.373C-3.378,4.617 -3.378,3.391 -4.134,2.634L-6.456,0.313L-6.442,0.3ZM-15.402,1.226C-15.141,0.965 -15.141,0.561 -15.402,0.3C-15.663,0.039 -16.067,0.039 -16.328,0.3L-18.649,2.621C-19.406,3.378 -19.406,4.604 -18.649,5.36L-16.393,7.616C-16.263,7.747 -16.093,7.812 -15.937,7.812C-15.78,7.812 -15.598,7.747 -15.48,7.616C-15.219,7.355 -15.219,6.951 -15.48,6.69L-17.736,4.434C-17.984,4.186 -17.984,3.782 -17.736,3.534L-15.415,1.213L-15.402,1.226ZM-9.442,-1.787L-12.05,9.951C-12.115,10.251 -12.389,10.459 -12.689,10.459C-12.741,10.459 -12.781,10.459 -12.833,10.446C-13.185,10.368 -13.407,10.016 -13.328,9.664L-10.72,-2.073C-10.642,-2.426 -10.29,-2.647 -9.938,-2.569C-9.585,-2.491 -9.364,-2.139 -9.442,-1.787" style="fill-rule:nonzero;"/>
            </g>
        </g>
    </g>
</svg>
